<svg xmlns="http://www.w3.org/2000/svg" width="27.206" height="27.206" viewBox="0 0 27.206 27.206"><path d="M13.72 26.686c-.001 0-.001 0 0 0-3.558 0-6.9-1.387-9.411-3.905-2.52-2.527-3.901-5.876-3.889-9.43s1.416-6.893 3.953-9.403a13.269 13.269 0 0 1 6.26-3.479 1.435 1.435 0 0 1 1.656.85 1.408 1.408 0 0 1-.315 1.559l-.124.125a8.656 8.656 0 0 0-.091 11.959 8.594 8.594 0 0 0 6.326 2.741 8.616 8.616 0 0 0 6.132-2.54c.623-.625 1.657-.533 2.166.111.269.341.365.783.262 1.212a13.263 13.263 0 0 1-3.529 6.307 13.202 13.202 0 0 1-9.396 3.893zM10.439 2.171a11.704 11.704 0 0 0-4.941 2.915c-2.232 2.208-3.468 5.146-3.479 8.271s1.205 6.071 3.422 8.295a11.612 11.612 0 0 0 8.277 3.435h.001c3.122 0 6.057-1.216 8.265-3.424a11.683 11.683 0 0 0 2.955-4.981 10.206 10.206 0 0 1-6.854 2.622 10.178 10.178 0 0 1-7.492-3.245 10.254 10.254 0 0 1-.154-13.888z"/></svg>