<svg xmlns="http://www.w3.org/2000/svg" width="456.283" height="73.302" viewBox="0 0 456.283 73.302"><g fill="#231F20"><path d="M136.841 25.063c-.188.925-.417 2.214-.684 3.866-.269 1.654-.448 2.935-.543 3.845-3.364.503-6.366.755-9.007.755-2.547 0-4.917-.318-7.11-.956a17.465 17.465 0 0 1-6.036-3.135c-1.831-1.455-3.141-3.164-3.926-5.129-.786-1.965-1.179-4.166-1.179-6.603 0-2.845.53-5.403 1.592-7.675a15.056 15.056 0 0 1 4.573-5.682 18.985 18.985 0 0 1 6.545-3.254 27.598 27.598 0 0 1 7.356-.979c2.326 0 5.203.298 8.63.896l.047 1.981c.031.864.079 1.815.143 2.853l.164 2.689c-1.839-.441-3.328-.739-4.468-.896a23.354 23.354 0 0 0-3.172-.236c-2.122 0-4.031.425-5.73 1.273a9.589 9.589 0 0 0-4.008 3.703c-.976 1.619-1.462 3.411-1.462 5.376 0 1.792.408 3.328 1.226 4.61.817 1.281 1.923 2.271 3.313 2.97 1.391.701 3.108 1.05 5.152 1.05 1.116 0 2.33-.091 3.643-.271 1.313-.181 2.96-.532 4.941-1.051zM150.574 32.916c.156-1.273.346-3.435.565-6.484.221-3.05.33-5.204.33-6.462L140.671.729c2.37.032 4.327.047 5.866.047 1.477 0 3.244-.015 5.301-.047.629 1.572 1.481 3.445 2.559 5.622 1.076 2.177 1.953 4.122 2.629 5.834 1.807-3.189 3.259-5.676 4.36-7.46 1.099-1.784 1.885-3.116 2.356-3.996 1.997.032 3.919.047 5.761.047.975 0 2.745-.015 5.312-.047l-10.353 15.256c-2.06 3.049-3.089 4.645-3.089 4.787l-.022.236v.236l-.024.236-.165 3.584c-.11 2.374-.196 4.991-.259 7.853-2.216-.032-3.93-.048-5.141-.048-1.243-.001-2.971.015-5.188.047zM177.418 32.916c.328-3.459.548-6.179.659-8.159.156-2.704.31-6.414.459-11.129.148-4.717.224-8.041.224-9.975 0-.691-.009-1.666-.024-2.923 2.092.047 3.75.071 4.976.071 1.714 0 3.711-.036 5.99-.107 2.28-.07 4.236-.106 5.871-.106 1.966 0 3.365.056 4.198.165 1.1.142 2.063.394 2.889.755.824.361 1.514.809 2.064 1.344a6.748 6.748 0 0 1 1.438 2.264 8.798 8.798 0 0 1 .588 3.23c0 .896-.113 1.753-.34 2.57a7.805 7.805 0 0 1-.967 2.181 6.987 6.987 0 0 1-1.404 1.592 7.574 7.574 0 0 1-1.52.99c-.496.236-1.16.472-1.994.708.834.141 1.502.303 2.006.483.502.181 1.041.472 1.615.872a6.557 6.557 0 0 1 1.543 1.545 6.805 6.805 0 0 1 1.025 2.11c.229.778.344 1.6.344 2.464a9.575 9.575 0 0 1-.59 3.373c-.395 1.053-.943 1.957-1.65 2.711-.598.646-1.377 1.195-2.336 1.651-.957.456-1.941.769-2.948.943-.816.126-2.307.22-4.467.284-2.162.062-4.453.094-6.875.094l-6.2-.024-4.574.023zm9.964-6.462h4.532c1.195 0 2.076-.07 2.644-.212.691-.172 1.219-.4 1.58-.683.362-.284.65-.668.862-1.156a4.029 4.029 0 0 0 .318-1.626c0-.52-.086-.975-.26-1.368a2.501 2.501 0 0 0-.777-.99c-.346-.268-.771-.46-1.272-.579-.504-.118-1.291-.177-2.36-.177h-4.976l-.291 6.791zm.54-13.181h3.354c1.101 0 1.885-.027 2.349-.082a7.194 7.194 0 0 0 1.357-.295 2.771 2.771 0 0 0 1.146-.707c.323-.331.551-.7.685-1.108s.201-.817.201-1.227c0-.581-.139-1.1-.413-1.556-.275-.456-.72-.794-1.332-1.014-.613-.22-1.548-.331-2.807-.331h-4.244l-.296 6.32zM213.976 32.916c.393-4.057.682-7.452.863-10.188.18-2.735.361-6.37.543-10.905.182-4.535.271-7.542.271-9.019L215.63.729c3.709.032 8.195.047 13.463.047 4.855 0 9.139-.015 12.848-.047l-.047.775c-.016.188-.055.87-.117 2.045l-.143 2.562a29.563 29.563 0 0 0-.047 1.669c-3.033-.126-5.58-.189-7.641-.189-2.264 0-3.791.004-4.586.011-.793.009-2.031.043-3.713.106l-.285 5.423a259.6 259.6 0 0 0 6.484.071c.881 0 3.225-.055 7.027-.166-.154 2.013-.305 4.41-.447 7.192a566.879 566.879 0 0 0-6.268-.047c-2.168 0-4.596.055-7.281.165l-.281 5.73h2.711c.801 0 2.457-.024 4.971-.071l4.879-.118c.723-.014 1.932-.078 3.629-.188a241.38 241.38 0 0 0-.473 7.216c-3.834-.032-8.041-.048-12.615-.048l-10.375.023-3.347.026zM248.201 32.916c.299-2.768.535-5.259.709-7.475.174-2.217.322-4.787.449-7.711.125-2.924.219-6.009.283-9.255.063-3.246.094-5.828.094-7.746 1.965.047 3.553.071 4.764.071 1.258 0 2.791-.036 4.598-.107 1.807-.07 3.568-.106 5.281-.106 2.012 0 3.805.079 5.375.236 1.18.111 2.252.339 3.219.685s1.779.766 2.439 1.261a7.731 7.731 0 0 1 1.65 1.663c.439.613.781 1.333 1.025 2.158.244.825.367 1.709.367 2.652 0 1.053-.135 2.04-.402 2.959-.268.919-.688 1.784-1.262 2.594s-1.297 1.509-2.17 2.098c-.871.589-2.094 1.191-3.666 1.804l1.227 2.995c.346.833.713 1.683 1.107 2.547l3.16 6.909c.141.298.393.888.754 1.769a522.036 522.036 0 0 0-5.23-.048c-1.131 0-2.984.016-5.561.048-.252-.817-.709-2.334-1.369-4.552a31.344 31.344 0 0 0-.686-2.146c-.377-1.116-.938-2.68-1.676-4.692l-2.432-6.673c.85.157 1.682.236 2.5.236 1.146 0 2.189-.173 3.123-.519.936-.346 1.643-.88 2.123-1.604.479-.723.719-1.485.719-2.288 0-.675-.182-1.269-.541-1.78-.363-.511-.932-.892-1.711-1.144-.777-.252-1.977-.378-3.596-.378-.551 0-1.121.012-1.711.036-.59.023-1.275.043-2.063.059-.201 3.223-.379 7.153-.533 11.79a580.343 580.343 0 0 0-.303 13.653 550.977 550.977 0 0 0-5.123-.048c-.91.001-2.556.017-4.931.049zM284.216 32.42c-.205-3.349-.441-6.028-.707-8.041 1.764.787 3.334 1.333 4.713 1.64 1.375.306 2.586.458 3.625.458 1.371 0 2.461-.201 3.271-.601.811-.401 1.217-.994 1.217-1.781 0-.267-.039-.522-.117-.766-.08-.243-.23-.519-.449-.825-.221-.307-.535-.641-.945-1.002l-4.443-3.867c-1.039-.88-1.764-1.518-2.174-1.91-.834-.801-1.484-1.548-1.949-2.24-.463-.692-.803-1.395-1.016-2.11s-.318-1.474-.318-2.276c0-.958.168-1.898.508-2.818.336-.92.844-1.78 1.52-2.582.676-.802 1.572-1.494 2.689-2.075a11.92 11.92 0 0 1 3.582-1.191 23.962 23.962 0 0 1 3.939-.318c2.654 0 5.549.307 8.678.92.047 1.084.102 2.079.164 2.982.063.904.211 2.488.447 4.751-1.447-.581-2.766-.986-3.961-1.214-1.195-.228-2.223-.342-3.088-.342-1.229 0-2.246.228-3.055.684-.811.456-1.215 1.022-1.215 1.698 0 .314.063.621.189.919.125.299.361.648.709 1.049.344.401.801.841 1.365 1.321a94.482 94.482 0 0 0 2.664 2.134l1.699 1.344c.504.409 1.045.904 1.627 1.485a16.61 16.61 0 0 1 1.51 1.722c.424.565.75 1.085.979 1.557.227.471.396.947.506 1.426.111.48.166.995.166 1.544 0 1.415-.34 2.764-1.016 4.045a8.49 8.49 0 0 1-2.877 3.159 12.006 12.006 0 0 1-4.09 1.734 21.703 21.703 0 0 1-4.703.495c-2.548.001-5.761-.369-9.644-1.108zM313.701 32.916l.467-6.037.609-11.79.258-8.348c.016-.896.023-1.792.023-2.688 0-.676-.008-1.784-.023-3.325 2.076.047 3.742.071 5.002.071 1.211 0 2.869-.036 4.977-.107a165.65 165.65 0 0 1 5.355-.106c2.105 0 3.666.134 4.682.401a8.506 8.506 0 0 1 2.746 1.262 8.093 8.093 0 0 1 2.031 2.016 8.495 8.495 0 0 1 1.201 2.629c.268.983.4 1.985.4 3.007 0 2.106-.51 4.031-1.533 5.777-1.02 1.745-2.459 3.049-4.313 3.915-1.855.864-3.939 1.297-6.25 1.297-.848 0-1.832-.095-2.947-.284-.125-.723-.361-1.799-.707-3.23-.346-1.43-.629-2.491-.85-3.183.691.142 1.416.212 2.17.212 1.588 0 2.771-.381 3.549-1.143s1.168-1.693 1.168-2.794c0-.535-.088-1.01-.26-1.427a2.33 2.33 0 0 0-.826-1.025 3.025 3.025 0 0 0-1.25-.519 9.279 9.279 0 0 0-1.555-.118c-.568 0-1.156.016-1.77.047l-1.98.142a274.852 274.852 0 0 0-.467 10.116c-.203 6.76-.303 10.815-.303 12.167v3.065l-4.697-.048c-.661 0-2.296.016-4.907.048zM366.318.116c2.514 0 4.936.338 7.262 1.014 2.326.676 4.363 1.757 6.107 3.242 1.744 1.486 3.049 3.195 3.914 5.128.863 1.935 1.297 4.159 1.297 6.673 0 2.642-.477 5.066-1.428 7.274a15.29 15.29 0 0 1-4.113 5.624c-1.793 1.541-3.93 2.669-6.414 3.384a27.87 27.87 0 0 1-7.758 1.074c-2.656 0-5.205-.351-7.641-1.05s-4.555-1.831-6.355-3.396c-1.799-1.564-3.076-3.306-3.832-5.224-.752-1.917-1.131-4.047-1.131-6.39 0-3.442.799-6.464 2.395-9.066 1.594-2.602 3.961-4.634 7.098-6.096 3.134-1.46 6.667-2.191 10.599-2.191zm-.426 7.097c-1.807 0-3.441.444-4.904 1.333s-2.586 2.122-3.373 3.702a11.268 11.268 0 0 0-1.18 5.082c0 1.667.359 3.191 1.074 4.574.717 1.384 1.805 2.465 3.266 3.243a9.755 9.755 0 0 0 4.645 1.167c1.746 0 3.346-.437 4.799-1.309 1.455-.872 2.564-2.099 3.326-3.679s1.143-3.234 1.143-4.963c0-1.682-.354-3.234-1.061-4.657a7.677 7.677 0 0 0-3.113-3.313c-1.368-.786-2.909-1.18-4.622-1.18zM391.037 32.916c.301-2.768.537-5.259.711-7.475.172-2.217.322-4.787.447-7.711.127-2.924.223-6.009.285-9.255s.094-5.828.094-7.746c1.965.047 3.553.071 4.764.071 1.256 0 2.789-.036 4.598-.107 1.807-.07 3.566-.106 5.281-.106 2.01 0 3.803.079 5.375.236 1.178.111 2.252.339 3.217.685.967.346 1.781.766 2.441 1.261a7.686 7.686 0 0 1 1.65 1.663c.439.613.781 1.333 1.025 2.158.244.825.365 1.709.365 2.652 0 1.053-.135 2.04-.4 2.959-.268.919-.688 1.784-1.262 2.594s-1.297 1.509-2.17 2.098-2.096 1.191-3.666 1.804l1.225 2.995c.346.833.717 1.683 1.109 2.547l3.16 6.909c.141.298.393.888.754 1.769a522.542 522.542 0 0 0-5.23-.048c-1.133 0-2.984.016-5.561.048-.252-.817-.709-2.334-1.371-4.552a30.441 30.441 0 0 0-.684-2.146c-.379-1.116-.936-2.68-1.676-4.692l-2.434-6.673c.85.157 1.684.236 2.5.236 1.148 0 2.189-.173 3.125-.519.936-.346 1.643-.88 2.121-1.604.48-.723.721-1.485.721-2.288 0-.675-.182-1.269-.543-1.78-.361-.511-.93-.892-1.709-1.144-.777-.252-1.979-.378-3.596-.378-.551 0-1.121.012-1.711.036-.588.023-1.277.043-2.063.059-.203 3.223-.379 7.153-.535 11.79a591.233 591.233 0 0 0-.301 13.653 550.583 550.583 0 0 0-5.125-.048c-.91.001-2.554.017-4.931.049zM434.505 32.916c.781-7.641 1.25-16.05 1.406-25.231l-10.037.26.119-2.618c.063-1.398.109-2.931.141-4.598 4.463.032 9.666.048 15.605.048l5.822-.024h5.658l3.063-.024-.141 2.309a148.702 148.702 0 0 0-.129 3.073c-.023.81-.035 1.421-.035 1.833-3.363-.173-6.133-.26-8.316-.26h-1.65a251.5 251.5 0 0 0-.545 7.697 454.46 454.46 0 0 0-.404 9.826 272.275 272.275 0 0 0-.141 7.708 530.721 530.721 0 0 0-4.998-.048c-.673.001-2.48.017-5.418.049z"/></g><g fill="#231F20"><path d="M107.711 71.575c-.204-3.35-.44-6.029-.707-8.041 1.764.785 3.334 1.332 4.713 1.639 1.378.307 2.587.459 3.627.459 1.369 0 2.46-.2 3.271-.601.811-.401 1.216-.994 1.216-1.781 0-.266-.039-.522-.118-.766-.078-.242-.229-.519-.448-.825-.222-.307-.536-.641-.945-1.003l-4.442-3.866c-1.04-.88-1.764-1.517-2.174-1.91-.835-.802-1.484-1.547-1.949-2.24a7.72 7.72 0 0 1-1.017-2.109 7.974 7.974 0 0 1-.319-2.276c0-.958.169-1.897.508-2.817a8.585 8.585 0 0 1 1.521-2.582c.676-.802 1.572-1.493 2.688-2.074a11.953 11.953 0 0 1 3.584-1.192 23.94 23.94 0 0 1 3.938-.318c2.657 0 5.55.308 8.678.921.048 1.083.102 2.079.166 2.982.062.903.212 2.487.447 4.751-1.446-.581-2.768-.986-3.962-1.214s-2.225-.343-3.088-.343c-1.227 0-2.245.228-3.055.686-.809.455-1.214 1.021-1.214 1.696 0 .315.063.621.188.919.126.3.361.648.707 1.05s.803.842 1.368 1.321c.566.479 1.453 1.19 2.664 2.133l1.698 1.345c.502.41 1.046.903 1.627 1.485a16.037 16.037 0 0 1 1.509 1.722c.425.566.751 1.085.979 1.557s.397.946.507 1.426c.11.48.165.995.165 1.544a8.565 8.565 0 0 1-1.013 4.046 8.542 8.542 0 0 1-2.878 3.159 12.029 12.029 0 0 1-4.091 1.733 21.705 21.705 0 0 1-4.704.495c-2.547-.002-5.762-.372-9.645-1.111zM164.974 64.218a99.462 99.462 0 0 0-.684 3.866c-.268 1.654-.449 2.935-.543 3.845-3.363.503-6.367.755-9.009.755-2.545 0-4.916-.318-7.108-.956a17.487 17.487 0 0 1-6.037-3.135c-1.83-1.455-3.14-3.164-3.925-5.129-.787-1.966-1.179-4.166-1.179-6.604 0-2.844.53-5.402 1.591-7.675 1.062-2.271 2.586-4.166 4.574-5.683s4.17-2.602 6.544-3.254a27.603 27.603 0 0 1 7.356-.979c2.326 0 5.203.3 8.631.897l.048 1.979c.03.865.078 1.816.14 2.854l.166 2.688c-1.839-.44-3.328-.739-4.469-.896a23.191 23.191 0 0 0-3.171-.236c-2.122 0-4.032.424-5.73 1.273a9.598 9.598 0 0 0-4.008 3.702c-.976 1.619-1.463 3.411-1.463 5.376 0 1.792.409 3.328 1.227 4.61.817 1.281 1.922 2.271 3.314 2.97 1.391.701 3.107 1.05 5.15 1.05 1.116 0 2.33-.091 3.644-.271 1.313-.178 2.96-.528 4.941-1.047zM191.368 39.27c2.516 0 4.936.339 7.263 1.015 2.326.676 4.363 1.756 6.107 3.242 1.744 1.485 3.049 3.194 3.914 5.129.865 1.934 1.297 4.158 1.297 6.672 0 2.642-.477 5.066-1.426 7.274a15.257 15.257 0 0 1-4.115 5.624c-1.791 1.541-3.93 2.669-6.414 3.385a27.902 27.902 0 0 1-7.758 1.073c-2.657 0-5.203-.351-7.639-1.05-2.438-.699-4.556-1.831-6.355-3.396-1.801-1.564-3.078-3.306-3.832-5.224-.755-1.917-1.133-4.047-1.133-6.391 0-3.441.799-6.463 2.395-9.065 1.595-2.602 3.961-4.634 7.098-6.095 3.135-1.462 6.669-2.193 10.598-2.193zm-.424 7.097c-1.809 0-3.443.444-4.905 1.334-1.461.887-2.586 2.122-3.372 3.7a11.259 11.259 0 0 0-1.179 5.083c0 1.666.357 3.19 1.072 4.573.716 1.384 1.806 2.465 3.267 3.242a9.751 9.751 0 0 0 4.646 1.168c1.744 0 3.344-.437 4.799-1.31 1.453-.871 2.562-2.098 3.325-3.679a11.293 11.293 0 0 0 1.142-4.963c0-1.682-.354-3.233-1.061-4.656a7.698 7.698 0 0 0-3.111-3.314c-1.37-.784-2.91-1.178-4.623-1.178zM216.089 72.07c.299-2.768.537-5.259.711-7.476.172-2.216.322-4.786.447-7.711.127-2.924.221-6.008.285-9.255.063-3.245.094-5.828.094-7.746 1.965.048 3.553.072 4.762.072 1.258 0 2.791-.037 4.6-.107 1.807-.07 3.566-.106 5.281-.106 2.01 0 3.803.08 5.375.235 1.178.112 2.252.34 3.217.686.967.346 1.781.767 2.441 1.26a7.713 7.713 0 0 1 1.65 1.664c.439.613.781 1.331 1.025 2.157.244.825.365 1.709.365 2.652 0 1.053-.135 2.039-.4 2.96a8.652 8.652 0 0 1-1.262 2.594 8.4 8.4 0 0 1-2.17 2.099c-.873.589-2.096 1.189-3.666 1.803l1.225 2.996c.346.833.717 1.682 1.109 2.546l3.16 6.909c.141.298.393.888.754 1.769a522.27 522.27 0 0 0-5.232-.048c-1.131 0-2.982.016-5.559.048-.252-.817-.709-2.334-1.371-4.552a30.27 30.27 0 0 0-.684-2.146c-.379-1.115-.938-2.68-1.676-4.691l-2.434-6.673c.85.156 1.684.236 2.5.236 1.148 0 2.189-.174 3.125-.52s1.643-.88 2.121-1.603c.48-.724.721-1.486.721-2.288 0-.676-.182-1.27-.543-1.779-.361-.512-.93-.893-1.709-1.145-.777-.251-1.979-.377-3.596-.377-.551 0-1.121.011-1.711.035-.59.023-1.277.043-2.063.059-.203 3.223-.379 7.153-.535 11.79a591.233 591.233 0 0 0-.301 13.653 550.583 550.583 0 0 0-5.125-.048c-.909 0-2.554.016-4.931.048zM252.365 72.07c.395-4.057.682-7.451.863-10.187.18-2.736.361-6.37.543-10.906.182-4.535.273-7.542.273-9.019l-.023-2.076c3.709.032 8.195.048 13.461.048 4.857 0 9.139-.016 12.848-.048l-.045.776c-.016.188-.057.869-.119 2.044l-.141 2.562a29.556 29.556 0 0 0-.049 1.67c-3.033-.126-5.58-.189-7.639-.189-2.264 0-3.793.005-4.586.011-.795.01-2.031.045-3.715.106l-.285 5.424c1.855.048 4.018.071 6.486.071.879 0 3.223-.056 7.027-.165a261.554 261.554 0 0 0-.447 7.191 562.211 562.211 0 0 0-6.268-.046 179.4 179.4 0 0 0-7.283.164l-.279 5.73h2.709c.801 0 2.459-.024 4.973-.072l4.877-.117c.723-.015 1.932-.078 3.629-.188a238.219 238.219 0 0 0-.471 7.216c-3.838-.032-8.041-.048-12.615-.048l-10.375.024-3.349.024z"/></g><g fill-rule="evenodd" clip-rule="evenodd" fill="#231F20"><path d="M74.021 5.587c-1.748.167-3.288.368-4.828.453-8.222.47-16.445.89-24.665 1.364-8.738.505-17.48.985-26.209 1.601-4.479.316-7.951 3.933-7.987 8.477-.1 12.756-.1 25.508.006 38.264.038 4.471 3.684 8.171 8.054 8.44 15.717.964 31.436 1.854 47.156 2.778 2.777.166 5.549.358 8.676.561-1.167 2.517-2.952 3.675-5.167 3.805-3.182.188-6.391.104-9.583-.026-8.816-.354-17.629-.787-26.444-1.193-8.09-.373-16.183-.711-24.273-1.133C3.69 68.71.037 64.621.024 59.201-.009 45.79.009 32.384.009 18.974c0-1.767-.028-3.532.013-5.296.129-5.602 3.984-9.32 9.597-9.538 12.735-.493 25.464-1.06 38.192-1.638 6.264-.283 12.517-.675 18.78-.981 3.528-.174 6.342 1.296 7.43 4.066zM77.292.128c6.064-.743 16.124 4.131 16.174 12.791.088 15.767.136 31.54-.029 47.302-.065 6.038-3.946 9.629-9.231 11.732-2.006.798-4.214 1.08-6.447 1.348 4.606-4.176 5.338-9.535 5.344-15.137.013-14.656.044-29.312-.035-43.969-.014-2.325-.407-4.688-.938-6.958-.65-2.774-1.901-5.299-4.838-7.109z"/><path d="M54.011 30.418a2.096 2.096 0 0 1-2.096 2.097H39.211a2.095 2.095 0 0 1-2.096-2.097v-8.559c0-1.159.937-2.098 2.096-2.098l12.77-.751c1.159 0 2.097.936 2.097 2.096l-.067 9.312zM54.079 51.838a2.096 2.096 0 0 1-2.097 2.096l-12.77-.459a2.095 2.095 0 0 1-2.096-2.097v-8.559c0-1.16.937-2.097 2.096-2.097l12.77.258c1.159 0 2.097.936 2.097 2.095v8.763z"/></g></svg>