<svg xmlns="http://www.w3.org/2000/svg" width="27.206" height="27.206" viewBox="0 0 27.206 27.206"><g fill-rule="evenodd" clip-rule="evenodd"><path d="M0 13.492c.048-.108.083-.225.146-.324.129-.205.31-.343.566-.345.878-.007 1.756-.015 2.635-.018.328 0 .656.019.984.02a.703.703 0 0 1 .567.269c.224.272.23.587.114.891a.663.663 0 0 1-.649.455c-1.192.006-2.385.015-3.578.018-.365.002-.582-.218-.733-.523a3.706 3.706 0 0 1-.052-.11v-.333zM13.714.029c.223.044.43.124.558.322a.848.848 0 0 1 .132.324c.027.182.028.369.028.553.002.916.001 1.832 0 2.747 0 .143-.027.287-.016.429.026.329-.357.673-.673.69-.344.018-.643-.046-.828-.355a.853.853 0 0 1-.11-.405c-.016-1.165-.025-2.33-.025-3.496 0-.408.224-.655.684-.81l.25.001zM6.828 13.64c-.092-3.632 3.02-6.689 6.483-6.803 4.353-.144 7.224 3.545 7.088 6.801.108 3.621-3.14 6.809-6.786 6.809-3.685-.001-6.909-3.239-6.785-6.807zm1.703-.001c-.12 2.569 2.216 5.142 5.12 5.102a5.152 5.152 0 0 0 5.07-5.12c.019-2.539-2.167-5.124-5.229-5.089-2.594.03-5.071 2.397-4.961 5.107zM22.676 23.515c-.229.004-.388-.093-.527-.215a16.539 16.539 0 0 1-.827-.76 105.961 105.961 0 0 1-1.588-1.628c-.158-.165-.321-.332-.34-.586-.044-.595.57-1.07 1.127-.86a.619.619 0 0 1 .209.13c.818.816 1.634 1.635 2.448 2.455.074.075.133.166.196.251.136.182.15.38.082.592-.108.331-.483.62-.78.621zM7.834 7.017c-.003.494-.466.909-.953.83a.81.81 0 0 1-.375-.189 13.746 13.746 0 0 1-.79-.737c-.543-.543-1.078-1.093-1.614-1.641a2.244 2.244 0 0 1-.178-.212.808.808 0 0 1 .378-1.262c.234-.085.457-.077.656.079.2.156.404.311.582.49a193.8 193.8 0 0 1 2.055 2.101c.206.214.24.325.239.541zM20.243 7.858c-.523 0-.946-.506-.829-1.015a.797.797 0 0 1 .207-.352c.687-.711 1.382-1.415 2.077-2.118.136-.138.29-.259.429-.394.401-.392 1.07-.227 1.299.322.106.254.097.503-.087.716-.271.315-.542.631-.836.924a96.728 96.728 0 0 1-1.754 1.696c-.201.191-.305.221-.506.221zM24.72 14.461c-.596 0-1.193.006-1.789-.002a.824.824 0 0 1-.773-.587c-.094-.326.041-.73.327-.922a.693.693 0 0 1 .344-.121c.804-.017 1.608-.023 2.413-.025.397-.001.795.012 1.192.023.371.01.669.231.744.545.104.435-.043.824-.388 1.004a.61.61 0 0 1-.253.059c-.605.02-1.21.034-1.816.049l-.001-.023zM3.735 22.587c.031-.069.066-.224.155-.337.188-.239.396-.464.611-.68.573-.578 1.153-1.149 1.732-1.721.088-.088.187-.166.28-.248.242-.212.514-.241.801-.116.298.13.47.362.516.687.034.24-.054.437-.215.604-.402.422-.8.848-1.212 1.259-.429.428-.872.841-1.31 1.259-.248.236-.536.283-.844.14-.32-.15-.491-.408-.514-.847zM12.776 24.694v-1.693c0-.187.053-.349.161-.505.327-.468 1.094-.442 1.399.068a.543.543 0 0 1 .071.249c.015.555.028 1.11.028 1.665 0 .689-.017 1.378-.021 2.067-.001.208-.099.36-.242.494-.373.348-1.099.219-1.308-.244a.998.998 0 0 1-.063-.394c-.006-.569-.003-1.138-.003-1.707h-.022z"/></g></svg>