<?xml version="1.0" encoding="utf-8"?>
<!-- Generator: Adobe Illustrator 16.0.0, SVG Export Plug-In . SVG Version: 6.00 Build 0)  -->
<!DOCTYPE svg PUBLIC "-//W3C//DTD SVG 1.1//EN" "http://www.w3.org/Graphics/SVG/1.1/DTD/svg11.dtd">
<svg version="1.1" id="Capa_1" xmlns="http://www.w3.org/2000/svg" xmlns:xlink="http://www.w3.org/1999/xlink" x="0px" y="0px"
	 width="27.206px" height="27.206px" viewBox="0 0 27.206 27.206" enable-background="new 0 0 27.206 27.206" xml:space="preserve">
<g>
	<path d="M13.72,26.686C13.719,26.686,13.719,26.686,13.72,26.686c-3.558,0-6.9-1.387-9.411-3.905
		c-2.52-2.527-3.901-5.876-3.889-9.43s1.416-6.893,3.953-9.403c1.734-1.715,3.898-2.917,6.26-3.479
		c0.685-0.165,1.388,0.202,1.656,0.85c0.225,0.544,0.104,1.142-0.315,1.559L11.85,3.003c-3.222,3.331-3.262,8.583-0.091,11.959
		c1.66,1.768,3.906,2.741,6.326,2.741c2.316,0,4.494-0.902,6.132-2.54c0.623-0.625,1.657-0.533,2.166,0.111
		c0.269,0.341,0.365,0.783,0.262,1.212c-0.567,2.384-1.788,4.565-3.529,6.307C20.606,25.303,17.269,26.686,13.72,26.686z
		 M10.439,2.171C8.596,2.708,6.89,3.71,5.498,5.086c-2.232,2.208-3.468,5.146-3.479,8.271s1.205,6.071,3.422,8.295
		c2.209,2.215,5.149,3.435,8.277,3.435c0,0,0,0,0.001,0c3.122,0,6.057-1.216,8.265-3.424c1.393-1.394,2.407-3.106,2.955-4.981
		c-1.899,1.7-4.306,2.622-6.854,2.622c-2.866,0-5.527-1.152-7.492-3.245C6.924,12.153,6.883,6.126,10.439,2.171z"/>
</g>
</svg>
