<?xml version="1.0" encoding="utf-8"?>
<!-- Generator: Adobe Illustrator 16.0.0, SVG Export Plug-In . SVG Version: 6.00 Build 0)  -->
<!DOCTYPE svg PUBLIC "-//W3C//DTD SVG 1.1//EN" "http://www.w3.org/Graphics/SVG/1.1/DTD/svg11.dtd">
<svg version="1.1" id="Слой_1" xmlns="http://www.w3.org/2000/svg" xmlns:xlink="http://www.w3.org/1999/xlink" x="0px" y="0px"
	 width="456.283px" height="73.302px" viewBox="0 0 456.283 73.302" enable-background="new 0 0 456.283 73.302"
	 xml:space="preserve">
<g>
	<path fill="#231F20" d="M136.841,25.063c-0.188,0.925-0.417,2.214-0.684,3.866c-0.269,1.654-0.448,2.935-0.543,3.845
		c-3.364,0.503-6.366,0.755-9.007,0.755c-2.547,0-4.917-0.318-7.11-0.956c-2.192-0.636-4.205-1.682-6.036-3.135
		c-1.831-1.455-3.141-3.164-3.926-5.129c-0.786-1.965-1.179-4.166-1.179-6.603c0-2.845,0.53-5.403,1.592-7.675
		c1.061-2.271,2.585-4.166,4.573-5.682c1.989-1.518,4.171-2.602,6.545-3.254c2.373-0.653,4.825-0.979,7.356-0.979
		c2.326,0,5.203,0.298,8.63,0.896l0.047,1.981c0.031,0.864,0.079,1.815,0.143,2.853l0.164,2.689
		c-1.839-0.441-3.328-0.739-4.468-0.896c-1.14-0.157-2.197-0.236-3.172-0.236c-2.122,0-4.031,0.425-5.73,1.273
		c-1.697,0.849-3.034,2.083-4.008,3.703c-0.976,1.619-1.462,3.411-1.462,5.376c0,1.792,0.408,3.328,1.226,4.61
		c0.817,1.281,1.923,2.271,3.313,2.97c1.391,0.701,3.108,1.05,5.152,1.05c1.116,0,2.33-0.091,3.643-0.271
		C133.213,25.933,134.86,25.582,136.841,25.063z"/>
	<path fill="#231F20" d="M150.574,32.916c0.156-1.273,0.346-3.435,0.565-6.484c0.221-3.05,0.33-5.204,0.33-6.462L140.671,0.729
		c2.37,0.032,4.327,0.047,5.866,0.047c1.477,0,3.244-0.015,5.301-0.047c0.629,1.572,1.481,3.445,2.559,5.622
		c1.076,2.177,1.953,4.122,2.629,5.834c1.807-3.189,3.259-5.676,4.36-7.46c1.099-1.784,1.885-3.116,2.356-3.996
		c1.997,0.032,3.919,0.047,5.761,0.047c0.975,0,2.745-0.015,5.312-0.047l-10.353,15.256c-2.06,3.049-3.089,4.645-3.089,4.787
		l-0.022,0.236v0.236l-0.024,0.236l-0.165,3.584c-0.11,2.374-0.196,4.991-0.259,7.853c-2.216-0.032-3.93-0.048-5.141-0.048
		C154.519,32.868,152.791,32.884,150.574,32.916z"/>
	<path fill="#231F20" d="M177.418,32.916c0.328-3.459,0.548-6.179,0.659-8.159c0.156-2.704,0.31-6.414,0.459-11.129
		c0.148-4.717,0.224-8.041,0.224-9.975c0-0.691-0.009-1.666-0.024-2.923c2.092,0.047,3.75,0.071,4.976,0.071
		c1.714,0,3.711-0.036,5.99-0.107c2.28-0.07,4.236-0.106,5.871-0.106c1.966,0,3.365,0.056,4.198,0.165
		c1.1,0.142,2.063,0.394,2.889,0.755c0.824,0.361,1.514,0.809,2.064,1.344c0.611,0.628,1.092,1.384,1.438,2.264
		c0.393,1.006,0.588,2.083,0.588,3.23c0,0.896-0.113,1.753-0.34,2.57c-0.229,0.818-0.551,1.544-0.967,2.181
		c-0.418,0.637-0.885,1.167-1.404,1.592c-0.518,0.424-1.025,0.754-1.52,0.99c-0.496,0.236-1.16,0.472-1.994,0.708
		c0.834,0.141,1.502,0.303,2.006,0.483c0.502,0.181,1.041,0.472,1.615,0.872c0.572,0.401,1.088,0.916,1.543,1.545
		c0.455,0.628,0.799,1.332,1.025,2.11c0.229,0.778,0.344,1.6,0.344,2.464c0,1.195-0.197,2.319-0.59,3.373
		c-0.395,1.053-0.943,1.957-1.65,2.711c-0.598,0.646-1.377,1.195-2.336,1.651c-0.957,0.456-1.941,0.769-2.948,0.943
		c-0.816,0.126-2.307,0.22-4.467,0.284c-2.162,0.062-4.453,0.094-6.875,0.094l-6.2-0.024L177.418,32.916z M187.382,26.454h4.532
		c1.195,0,2.076-0.07,2.644-0.212c0.691-0.172,1.219-0.4,1.58-0.683c0.362-0.284,0.65-0.668,0.862-1.156
		c0.212-0.486,0.318-1.029,0.318-1.626c0-0.52-0.086-0.975-0.26-1.368c-0.172-0.393-0.432-0.724-0.777-0.99
		c-0.346-0.268-0.771-0.46-1.272-0.579c-0.504-0.118-1.291-0.177-2.36-0.177h-4.976L187.382,26.454z M187.922,13.273h3.354
		c1.101,0,1.885-0.027,2.349-0.082c0.465-0.055,0.918-0.154,1.357-0.295c0.441-0.142,0.822-0.377,1.146-0.707
		c0.323-0.331,0.551-0.7,0.685-1.108s0.201-0.817,0.201-1.227c0-0.581-0.139-1.1-0.413-1.556c-0.275-0.456-0.72-0.794-1.332-1.014
		c-0.613-0.22-1.548-0.331-2.807-0.331h-4.244L187.922,13.273z"/>
	<path fill="#231F20" d="M213.976,32.916c0.393-4.057,0.682-7.452,0.863-10.188c0.18-2.735,0.361-6.37,0.543-10.905
		c0.182-4.535,0.271-7.542,0.271-9.019l-0.023-2.075c3.709,0.032,8.195,0.047,13.463,0.047c4.855,0,9.139-0.015,12.848-0.047
		l-0.047,0.775c-0.016,0.188-0.055,0.87-0.117,2.045l-0.143,2.562c-0.031,0.548-0.047,1.105-0.047,1.669
		c-3.033-0.126-5.58-0.189-7.641-0.189c-2.264,0-3.791,0.004-4.586,0.011c-0.793,0.009-2.031,0.043-3.713,0.106l-0.285,5.423
		c1.854,0.047,4.016,0.071,6.484,0.071c0.881,0,3.225-0.055,7.027-0.166c-0.154,2.013-0.305,4.41-0.447,7.192
		c-2.717-0.032-4.807-0.047-6.268-0.047c-2.168,0-4.596,0.055-7.281,0.165l-0.281,5.73h2.711c0.801,0,2.457-0.024,4.971-0.071
		l4.879-0.118c0.723-0.014,1.932-0.078,3.629-0.188c-0.189,2.326-0.346,4.732-0.473,7.216c-3.834-0.032-8.041-0.048-12.615-0.048
		l-10.375,0.023L213.976,32.916z"/>
	<path fill="#231F20" d="M248.201,32.916c0.299-2.768,0.535-5.259,0.709-7.475c0.174-2.217,0.322-4.787,0.449-7.711
		c0.125-2.924,0.219-6.009,0.283-9.255c0.063-3.246,0.094-5.828,0.094-7.746c1.965,0.047,3.553,0.071,4.764,0.071
		c1.258,0,2.791-0.036,4.598-0.107c1.807-0.07,3.568-0.106,5.281-0.106c2.012,0,3.805,0.079,5.375,0.236
		c1.18,0.111,2.252,0.339,3.219,0.685s1.779,0.766,2.439,1.261c0.66,0.496,1.209,1.05,1.65,1.663
		c0.439,0.613,0.781,1.333,1.025,2.158c0.244,0.825,0.367,1.709,0.367,2.652c0,1.053-0.135,2.04-0.402,2.959
		c-0.268,0.919-0.688,1.784-1.262,2.594s-1.297,1.509-2.17,2.098c-0.871,0.589-2.094,1.191-3.666,1.804l1.227,2.995
		c0.346,0.833,0.713,1.683,1.107,2.547l3.16,6.909c0.141,0.298,0.393,0.888,0.754,1.769c-2.592-0.032-4.334-0.048-5.23-0.048
		c-1.131,0-2.984,0.016-5.561,0.048c-0.252-0.817-0.709-2.334-1.369-4.552c-0.268-0.927-0.498-1.643-0.686-2.146
		c-0.377-1.116-0.938-2.68-1.676-4.692l-2.432-6.673c0.85,0.157,1.682,0.236,2.5,0.236c1.146,0,2.189-0.173,3.123-0.519
		c0.936-0.346,1.643-0.88,2.123-1.604c0.479-0.723,0.719-1.485,0.719-2.288c0-0.675-0.182-1.269-0.541-1.78
		c-0.363-0.511-0.932-0.892-1.711-1.144c-0.777-0.252-1.977-0.378-3.596-0.378c-0.551,0-1.121,0.012-1.711,0.036
		c-0.59,0.023-1.275,0.043-2.063,0.059c-0.201,3.223-0.379,7.153-0.533,11.79c-0.156,4.638-0.258,9.189-0.303,13.653
		c-2.629-0.032-4.338-0.048-5.123-0.048C252.222,32.868,250.576,32.884,248.201,32.916z"/>
	<path fill="#231F20" d="M284.216,32.42c-0.205-3.349-0.441-6.028-0.707-8.041c1.764,0.787,3.334,1.333,4.713,1.64
		c1.375,0.306,2.586,0.458,3.625,0.458c1.371,0,2.461-0.201,3.271-0.601c0.811-0.401,1.217-0.994,1.217-1.781
		c0-0.267-0.039-0.522-0.117-0.766c-0.08-0.243-0.23-0.519-0.449-0.825c-0.221-0.307-0.535-0.641-0.945-1.002l-4.443-3.867
		c-1.039-0.88-1.764-1.518-2.174-1.91c-0.834-0.801-1.484-1.548-1.949-2.24c-0.463-0.692-0.803-1.395-1.016-2.11
		s-0.318-1.474-0.318-2.276c0-0.958,0.168-1.898,0.508-2.818c0.336-0.92,0.844-1.78,1.52-2.582c0.676-0.802,1.572-1.494,2.689-2.075
		c1.115-0.582,2.309-0.979,3.582-1.191c1.275-0.212,2.586-0.318,3.939-0.318c2.654,0,5.549,0.307,8.678,0.92
		c0.047,1.084,0.102,2.079,0.164,2.982c0.063,0.904,0.211,2.488,0.447,4.751c-1.447-0.581-2.766-0.986-3.961-1.214
		c-1.195-0.228-2.223-0.342-3.088-0.342c-1.229,0-2.246,0.228-3.055,0.684c-0.811,0.456-1.215,1.022-1.215,1.698
		c0,0.314,0.063,0.621,0.189,0.919c0.125,0.299,0.361,0.648,0.709,1.049c0.344,0.401,0.801,0.841,1.365,1.321
		c0.566,0.479,1.455,1.191,2.664,2.134l1.699,1.344c0.504,0.409,1.045,0.904,1.627,1.485c0.58,0.582,1.084,1.156,1.51,1.722
		c0.424,0.565,0.75,1.085,0.979,1.557c0.227,0.471,0.396,0.947,0.506,1.426c0.111,0.48,0.166,0.995,0.166,1.544
		c0,1.415-0.34,2.764-1.016,4.045c-0.674,1.281-1.633,2.334-2.877,3.159c-1.24,0.826-2.604,1.404-4.09,1.734
		c-1.486,0.329-3.053,0.495-4.703,0.495C291.312,33.529,288.099,33.159,284.216,32.42z"/>
	<path fill="#231F20" d="M313.701,32.916l0.467-6.037l0.609-11.79l0.258-8.348c0.016-0.896,0.023-1.792,0.023-2.688
		c0-0.676-0.008-1.784-0.023-3.325c2.076,0.047,3.742,0.071,5.002,0.071c1.211,0,2.869-0.036,4.977-0.107
		c2.105-0.07,3.893-0.106,5.355-0.106c2.105,0,3.666,0.134,4.682,0.401c1.014,0.268,1.93,0.688,2.746,1.262
		c0.82,0.574,1.496,1.246,2.031,2.016c0.533,0.771,0.934,1.646,1.201,2.629c0.268,0.983,0.4,1.985,0.4,3.007
		c0,2.106-0.51,4.031-1.533,5.777c-1.02,1.745-2.459,3.049-4.313,3.915c-1.855,0.864-3.939,1.297-6.25,1.297
		c-0.848,0-1.832-0.095-2.947-0.284c-0.125-0.723-0.361-1.799-0.707-3.23c-0.346-1.43-0.629-2.491-0.85-3.183
		c0.691,0.142,1.416,0.212,2.17,0.212c1.588,0,2.771-0.381,3.549-1.143s1.168-1.693,1.168-2.794c0-0.535-0.088-1.01-0.26-1.427
		c-0.174-0.416-0.447-0.758-0.826-1.025c-0.377-0.268-0.795-0.44-1.25-0.519c-0.455-0.078-0.975-0.118-1.555-0.118
		c-0.568,0-1.156,0.016-1.77,0.047l-1.98,0.142c-0.203,3.034-0.357,6.406-0.467,10.116c-0.203,6.76-0.303,10.815-0.303,12.167v3.065
		l-4.697-0.048C317.947,32.868,316.312,32.884,313.701,32.916z"/>
	<path fill="#231F20" d="M366.318,0.116c2.514,0,4.936,0.338,7.262,1.014c2.326,0.676,4.363,1.757,6.107,3.242
		c1.744,1.486,3.049,3.195,3.914,5.128c0.863,1.935,1.297,4.159,1.297,6.673c0,2.642-0.477,5.066-1.428,7.274
		c-0.951,2.209-2.322,4.083-4.113,5.624c-1.793,1.541-3.93,2.669-6.414,3.384c-2.484,0.716-5.07,1.074-7.758,1.074
		c-2.656,0-5.205-0.351-7.641-1.05s-4.555-1.831-6.355-3.396c-1.799-1.564-3.076-3.306-3.832-5.224
		c-0.752-1.917-1.131-4.047-1.131-6.39c0-3.442,0.799-6.464,2.395-9.066c1.594-2.602,3.961-4.634,7.098-6.096
		C358.853,0.847,362.386,0.116,366.318,0.116z M365.892,7.213c-1.807,0-3.441,0.444-4.904,1.333s-2.586,2.122-3.373,3.702
		c-0.785,1.58-1.18,3.274-1.18,5.082c0,1.667,0.359,3.191,1.074,4.574c0.717,1.384,1.805,2.465,3.266,3.243
		c1.461,0.777,3.01,1.167,4.645,1.167c1.746,0,3.346-0.437,4.799-1.309c1.455-0.872,2.564-2.099,3.326-3.679
		s1.143-3.234,1.143-4.963c0-1.682-0.354-3.234-1.061-4.657c-0.707-1.422-1.744-2.527-3.113-3.313
		C369.146,7.607,367.605,7.213,365.892,7.213z"/>
	<path fill="#231F20" d="M391.037,32.916c0.301-2.768,0.537-5.259,0.711-7.475c0.172-2.217,0.322-4.787,0.447-7.711
		c0.127-2.924,0.223-6.009,0.285-9.255s0.094-5.828,0.094-7.746c1.965,0.047,3.553,0.071,4.764,0.071
		c1.256,0,2.789-0.036,4.598-0.107c1.807-0.07,3.566-0.106,5.281-0.106c2.01,0,3.803,0.079,5.375,0.236
		c1.178,0.111,2.252,0.339,3.217,0.685c0.967,0.346,1.781,0.766,2.441,1.261c0.66,0.496,1.211,1.05,1.65,1.663
		c0.439,0.613,0.781,1.333,1.025,2.158c0.244,0.825,0.365,1.709,0.365,2.652c0,1.053-0.135,2.04-0.4,2.959
		c-0.268,0.919-0.688,1.784-1.262,2.594s-1.297,1.509-2.17,2.098s-2.096,1.191-3.666,1.804l1.225,2.995
		c0.346,0.833,0.717,1.683,1.109,2.547l3.16,6.909c0.141,0.298,0.393,0.888,0.754,1.769c-2.592-0.032-4.336-0.048-5.23-0.048
		c-1.133,0-2.984,0.016-5.561,0.048c-0.252-0.817-0.709-2.334-1.371-4.552c-0.266-0.927-0.496-1.643-0.684-2.146
		c-0.379-1.116-0.936-2.68-1.676-4.692l-2.434-6.673c0.85,0.157,1.684,0.236,2.5,0.236c1.148,0,2.189-0.173,3.125-0.519
		c0.936-0.346,1.643-0.88,2.121-1.604c0.48-0.723,0.721-1.485,0.721-2.288c0-0.675-0.182-1.269-0.543-1.78
		c-0.361-0.511-0.93-0.892-1.709-1.144c-0.777-0.252-1.979-0.378-3.596-0.378c-0.551,0-1.121,0.012-1.711,0.036
		c-0.588,0.023-1.277,0.043-2.063,0.059c-0.203,3.223-0.379,7.153-0.535,11.79c-0.154,4.638-0.256,9.189-0.301,13.653
		c-2.629-0.032-4.338-0.048-5.125-0.048C395.058,32.868,393.414,32.884,391.037,32.916z"/>
	<path fill="#231F20" d="M434.505,32.916c0.781-7.641,1.25-16.05,1.406-25.231l-10.037,0.26l0.119-2.618
		c0.063-1.398,0.109-2.931,0.141-4.598c4.463,0.032,9.666,0.048,15.605,0.048l5.822-0.024h5.658l3.063-0.024l-0.141,2.309
		c-0.063,1.239-0.105,2.263-0.129,3.073c-0.023,0.81-0.035,1.421-0.035,1.833c-3.363-0.173-6.133-0.26-8.316-0.26h-1.65
		c-0.236,2.778-0.418,5.343-0.545,7.697c-0.174,3.373-0.309,6.648-0.404,9.826c-0.094,3.177-0.141,5.747-0.141,7.708
		c-2.576-0.032-4.242-0.048-4.998-0.048C439.25,32.868,437.443,32.884,434.505,32.916z"/>
</g>
<g>
	<path fill="#231F20" d="M107.711,71.575c-0.204-3.35-0.44-6.029-0.707-8.041c1.764,0.785,3.334,1.332,4.713,1.639
		c1.378,0.307,2.587,0.459,3.627,0.459c1.369,0,2.46-0.2,3.271-0.601c0.811-0.401,1.216-0.994,1.216-1.781
		c0-0.266-0.039-0.522-0.118-0.766c-0.078-0.242-0.229-0.519-0.448-0.825c-0.222-0.307-0.536-0.641-0.945-1.003l-4.442-3.866
		c-1.04-0.88-1.764-1.517-2.174-1.91c-0.835-0.802-1.484-1.547-1.949-2.24c-0.466-0.691-0.804-1.395-1.017-2.109
		c-0.212-0.716-0.319-1.474-0.319-2.276c0-0.958,0.169-1.897,0.508-2.817c0.338-0.921,0.846-1.781,1.521-2.582
		c0.676-0.802,1.572-1.493,2.688-2.074c1.116-0.582,2.312-0.98,3.584-1.192c1.273-0.212,2.586-0.318,3.938-0.318
		c2.657,0,5.55,0.308,8.678,0.921c0.048,1.083,0.102,2.079,0.166,2.982c0.062,0.903,0.212,2.487,0.447,4.751
		c-1.446-0.581-2.768-0.986-3.962-1.214s-2.225-0.343-3.088-0.343c-1.227,0-2.245,0.228-3.055,0.686
		c-0.809,0.455-1.214,1.021-1.214,1.696c0,0.315,0.063,0.621,0.188,0.919c0.126,0.3,0.361,0.648,0.707,1.05
		c0.346,0.402,0.803,0.842,1.368,1.321c0.566,0.479,1.453,1.19,2.664,2.133l1.698,1.345c0.502,0.41,1.046,0.903,1.627,1.485
		c0.582,0.581,1.085,1.156,1.509,1.722c0.425,0.566,0.751,1.085,0.979,1.557s0.397,0.946,0.507,1.426
		c0.11,0.48,0.165,0.995,0.165,1.544c0,1.415-0.338,2.765-1.013,4.046c-0.677,1.28-1.636,2.334-2.878,3.159
		c-1.241,0.825-2.604,1.403-4.091,1.733c-1.485,0.329-3.054,0.495-4.704,0.495C114.809,72.684,111.594,72.314,107.711,71.575z"/>
	<path fill="#231F20" d="M164.974,64.218c-0.189,0.926-0.418,2.214-0.684,3.866c-0.268,1.654-0.449,2.935-0.543,3.845
		c-3.363,0.503-6.367,0.755-9.009,0.755c-2.545,0-4.916-0.318-7.108-0.956c-2.192-0.636-4.206-1.683-6.037-3.135
		c-1.83-1.455-3.14-3.164-3.925-5.129c-0.787-1.966-1.179-4.166-1.179-6.604c0-2.844,0.53-5.402,1.591-7.675
		c1.062-2.271,2.586-4.166,4.574-5.683s4.17-2.602,6.544-3.254c2.374-0.653,4.825-0.979,7.356-0.979c2.326,0,5.203,0.3,8.631,0.897
		l0.048,1.979c0.03,0.865,0.078,1.816,0.14,2.854l0.166,2.688c-1.839-0.44-3.328-0.739-4.469-0.896
		c-1.14-0.158-2.197-0.236-3.171-0.236c-2.122,0-4.032,0.424-5.73,1.273c-1.696,0.849-3.033,2.082-4.008,3.702
		c-0.976,1.619-1.463,3.411-1.463,5.376c0,1.792,0.409,3.328,1.227,4.61c0.817,1.281,1.922,2.271,3.314,2.97
		c1.391,0.701,3.107,1.05,5.15,1.05c1.116,0,2.33-0.091,3.644-0.271C161.346,65.087,162.993,64.737,164.974,64.218z"/>
	<path fill="#231F20" d="M191.368,39.27c2.516,0,4.936,0.339,7.263,1.015c2.326,0.676,4.363,1.756,6.107,3.242
		c1.744,1.485,3.049,3.194,3.914,5.129c0.865,1.934,1.297,4.158,1.297,6.672c0,2.642-0.477,5.066-1.426,7.274
		c-0.951,2.21-2.322,4.084-4.115,5.624c-1.791,1.541-3.93,2.669-6.414,3.385c-2.484,0.715-5.069,1.073-7.758,1.073
		c-2.657,0-5.203-0.351-7.639-1.05c-2.438-0.699-4.556-1.831-6.355-3.396c-1.801-1.564-3.078-3.306-3.832-5.224
		c-0.755-1.917-1.133-4.047-1.133-6.391c0-3.441,0.799-6.463,2.395-9.065c1.595-2.602,3.961-4.634,7.098-6.095
		C183.905,40.001,187.439,39.27,191.368,39.27z M190.944,46.367c-1.809,0-3.443,0.444-4.905,1.334
		c-1.461,0.887-2.586,2.122-3.372,3.7c-0.786,1.581-1.179,3.274-1.179,5.083c0,1.666,0.357,3.19,1.072,4.573
		c0.716,1.384,1.806,2.465,3.267,3.242c1.462,0.778,3.011,1.168,4.646,1.168c1.744,0,3.344-0.437,4.799-1.31
		c1.453-0.871,2.562-2.098,3.325-3.679c0.761-1.578,1.142-3.234,1.142-4.963c0-1.682-0.354-3.233-1.061-4.656
		c-0.708-1.423-1.745-2.527-3.111-3.314C194.197,46.761,192.657,46.367,190.944,46.367z"/>
	<path fill="#231F20" d="M216.089,72.07c0.299-2.768,0.537-5.259,0.711-7.476c0.172-2.216,0.322-4.786,0.447-7.711
		c0.127-2.924,0.221-6.008,0.285-9.255c0.063-3.245,0.094-5.828,0.094-7.746c1.965,0.048,3.553,0.072,4.762,0.072
		c1.258,0,2.791-0.037,4.6-0.107c1.807-0.07,3.566-0.106,5.281-0.106c2.01,0,3.803,0.08,5.375,0.235
		c1.178,0.112,2.252,0.34,3.217,0.686c0.967,0.346,1.781,0.767,2.441,1.26c0.66,0.496,1.209,1.05,1.65,1.664
		c0.439,0.613,0.781,1.331,1.025,2.157c0.244,0.825,0.365,1.709,0.365,2.652c0,1.053-0.135,2.039-0.4,2.96
		c-0.268,0.919-0.688,1.784-1.262,2.594c-0.576,0.81-1.297,1.509-2.17,2.099c-0.873,0.589-2.096,1.189-3.666,1.803l1.225,2.996
		c0.346,0.833,0.717,1.682,1.109,2.546l3.16,6.909c0.141,0.298,0.393,0.888,0.754,1.769c-2.592-0.032-4.336-0.048-5.232-0.048
		c-1.131,0-2.982,0.016-5.559,0.048c-0.252-0.817-0.709-2.334-1.371-4.552c-0.266-0.928-0.496-1.643-0.684-2.146
		c-0.379-1.115-0.938-2.68-1.676-4.691l-2.434-6.673c0.85,0.156,1.684,0.236,2.5,0.236c1.148,0,2.189-0.174,3.125-0.52
		s1.643-0.88,2.121-1.603c0.48-0.724,0.721-1.486,0.721-2.288c0-0.676-0.182-1.27-0.543-1.779c-0.361-0.512-0.93-0.893-1.709-1.145
		c-0.777-0.251-1.979-0.377-3.596-0.377c-0.551,0-1.121,0.011-1.711,0.035c-0.59,0.023-1.277,0.043-2.063,0.059
		c-0.203,3.223-0.379,7.153-0.535,11.79c-0.154,4.638-0.256,9.189-0.301,13.653c-2.629-0.032-4.338-0.048-5.125-0.048
		C220.111,72.022,218.466,72.038,216.089,72.07z"/>
	<path fill="#231F20" d="M252.365,72.07c0.395-4.057,0.682-7.451,0.863-10.187c0.18-2.736,0.361-6.37,0.543-10.906
		c0.182-4.535,0.273-7.542,0.273-9.019l-0.023-2.076c3.709,0.032,8.195,0.048,13.461,0.048c4.857,0,9.139-0.016,12.848-0.048
		l-0.045,0.776c-0.016,0.188-0.057,0.869-0.119,2.044l-0.141,2.562c-0.031,0.548-0.049,1.105-0.049,1.67
		c-3.033-0.126-5.58-0.189-7.639-0.189c-2.264,0-3.793,0.005-4.586,0.011c-0.795,0.01-2.031,0.045-3.715,0.106l-0.285,5.424
		c1.855,0.048,4.018,0.071,6.486,0.071c0.879,0,3.223-0.056,7.027-0.165c-0.158,2.012-0.307,4.409-0.447,7.191
		c-2.719-0.032-4.807-0.046-6.268-0.046c-2.168,0-4.598,0.054-7.283,0.164l-0.279,5.73h2.709c0.801,0,2.459-0.024,4.973-0.072
		l4.877-0.117c0.723-0.015,1.932-0.078,3.629-0.188c-0.188,2.326-0.346,4.732-0.471,7.216c-3.838-0.032-8.041-0.048-12.615-0.048
		l-10.375,0.024L252.365,72.07z"/>
</g>
<g>
	<g>
		<path fill-rule="evenodd" clip-rule="evenodd" fill="#231F20" d="M74.021,5.587c-1.748,0.167-3.288,0.368-4.828,0.453
			C60.971,6.51,52.748,6.93,44.528,7.404c-8.738,0.505-17.48,0.985-26.209,1.601c-4.479,0.316-7.951,3.933-7.987,8.477
			c-0.1,12.756-0.1,25.508,0.006,38.264c0.038,4.471,3.684,8.171,8.054,8.44c15.717,0.964,31.436,1.854,47.156,2.778
			c2.777,0.166,5.549,0.358,8.676,0.561c-1.167,2.517-2.952,3.675-5.167,3.805c-3.182,0.188-6.391,0.104-9.583-0.026
			c-8.816-0.354-17.629-0.787-26.444-1.193c-8.09-0.373-16.183-0.711-24.273-1.133c-5.067-0.268-8.72-4.357-8.733-9.777
			C-0.009,45.79,0.009,32.384,0.009,18.974c0-1.767-0.028-3.532,0.013-5.296c0.129-5.602,3.984-9.32,9.597-9.538
			c12.735-0.493,25.464-1.06,38.192-1.638c6.264-0.283,12.517-0.675,18.78-0.981C70.119,1.347,72.933,2.817,74.021,5.587z"/>
		<path fill-rule="evenodd" clip-rule="evenodd" fill="#231F20" d="M77.292,0.128c6.064-0.743,16.124,4.131,16.174,12.791
			c0.088,15.767,0.136,31.54-0.029,47.302c-0.065,6.038-3.946,9.629-9.231,11.732c-2.006,0.798-4.214,1.08-6.447,1.348
			c4.606-4.176,5.338-9.535,5.344-15.137c0.013-14.656,0.044-29.312-0.035-43.969c-0.014-2.325-0.407-4.688-0.938-6.958
			C81.48,4.463,80.229,1.938,77.292,0.128z"/>
	</g>
	<path fill-rule="evenodd" clip-rule="evenodd" fill="#231F20" d="M54.011,30.418c0,1.158-0.938,2.097-2.096,2.097H39.211
		c-1.159,0-2.096-0.938-2.096-2.097v-8.559c0-1.159,0.937-2.098,2.096-2.098l12.77-0.751c1.159,0,2.097,0.936,2.097,2.096
		L54.011,30.418z"/>
	<path fill-rule="evenodd" clip-rule="evenodd" fill="#231F20" d="M54.079,51.838c0,1.158-0.938,2.096-2.097,2.096l-12.77-0.459
		c-1.159,0-2.096-0.938-2.096-2.097v-8.559c0-1.16,0.937-2.097,2.096-2.097l12.77,0.258c1.159,0,2.097,0.936,2.097,2.095V51.838z"/>
</g>
</svg>
