<?xml version="1.0" encoding="utf-8"?>
<!-- Generator: Adobe Illustrator 16.0.0, SVG Export Plug-In . SVG Version: 6.00 Build 0)  -->
<!DOCTYPE svg PUBLIC "-//W3C//DTD SVG 1.1//EN" "http://www.w3.org/Graphics/SVG/1.1/DTD/svg11.dtd">
<svg version="1.1" id="Capa_1" xmlns="http://www.w3.org/2000/svg" xmlns:xlink="http://www.w3.org/1999/xlink" x="0px" y="0px"
	 width="27.206px" height="27.206px" viewBox="0 0 27.206 27.206" enable-background="new 0 0 27.206 27.206" xml:space="preserve">
<g>
	<path fill-rule="evenodd" clip-rule="evenodd" d="M0,13.492c0.048-0.108,0.083-0.225,0.146-0.324
		c0.129-0.205,0.31-0.343,0.566-0.345c0.878-0.007,1.756-0.015,2.635-0.018c0.328,0,0.656,0.019,0.984,0.02
		c0.235,0.001,0.421,0.092,0.567,0.269c0.224,0.272,0.23,0.587,0.114,0.891c-0.107,0.279-0.327,0.453-0.649,0.455
		c-1.192,0.006-2.385,0.015-3.578,0.018C0.42,14.46,0.203,14.24,0.052,13.935C0.034,13.899,0.017,13.862,0,13.825
		C0,13.715,0,13.604,0,13.492z"/>
	<path fill-rule="evenodd" clip-rule="evenodd" d="M13.714,0.029c0.223,0.044,0.43,0.124,0.558,0.322
		c0.063,0.097,0.115,0.211,0.132,0.324c0.027,0.182,0.028,0.369,0.028,0.553c0.002,0.916,0.001,1.832,0,2.747
		c0,0.143-0.027,0.287-0.016,0.429c0.026,0.329-0.357,0.673-0.673,0.69c-0.344,0.018-0.643-0.046-0.828-0.355
		c-0.069-0.116-0.108-0.269-0.11-0.405c-0.016-1.165-0.025-2.33-0.025-3.496c0-0.408,0.224-0.655,0.684-0.81
		C13.548,0.029,13.631,0.029,13.714,0.029z"/>
	<path fill-rule="evenodd" clip-rule="evenodd" d="M6.828,13.64c-0.092-3.632,3.02-6.689,6.483-6.803
		c4.353-0.144,7.224,3.545,7.088,6.801c0.108,3.621-3.14,6.809-6.786,6.809C9.928,20.446,6.704,17.208,6.828,13.64z M8.531,13.639
		c-0.12,2.569,2.216,5.142,5.12,5.102c2.773-0.038,5.049-2.293,5.07-5.12c0.019-2.539-2.167-5.124-5.229-5.089
		C10.898,8.562,8.421,10.929,8.531,13.639z"/>
	<path fill-rule="evenodd" clip-rule="evenodd" d="M22.676,23.515c-0.229,0.004-0.388-0.093-0.527-0.215
		c-0.282-0.247-0.563-0.495-0.827-0.76c-0.536-0.536-1.064-1.081-1.588-1.628c-0.158-0.165-0.321-0.332-0.34-0.586
		c-0.044-0.595,0.57-1.07,1.127-0.86c0.076,0.029,0.152,0.074,0.209,0.13c0.818,0.816,1.634,1.635,2.448,2.455
		c0.074,0.075,0.133,0.166,0.196,0.251c0.136,0.182,0.15,0.38,0.082,0.592C23.348,23.225,22.973,23.514,22.676,23.515z"/>
	<path fill-rule="evenodd" clip-rule="evenodd" d="M7.834,7.017c-0.003,0.494-0.466,0.909-0.953,0.83
		c-0.133-0.021-0.271-0.1-0.375-0.189C6.233,7.424,5.97,7.176,5.716,6.921C5.173,6.378,4.638,5.828,4.102,5.28
		C4.037,5.214,3.98,5.141,3.924,5.068C3.583,4.624,3.772,3.998,4.302,3.806c0.234-0.085,0.457-0.077,0.656,0.079
		c0.2,0.156,0.404,0.311,0.582,0.49C6.231,5.07,6.915,5.771,7.595,6.476C7.801,6.69,7.835,6.801,7.834,7.017z"/>
	<path fill-rule="evenodd" clip-rule="evenodd" d="M20.243,7.858c-0.523,0-0.946-0.506-0.829-1.015
		c0.029-0.127,0.114-0.256,0.207-0.352c0.687-0.711,1.382-1.415,2.077-2.118c0.136-0.138,0.29-0.259,0.429-0.394
		c0.401-0.392,1.07-0.227,1.299,0.322c0.106,0.254,0.097,0.503-0.087,0.716c-0.271,0.315-0.542,0.631-0.836,0.924
		c-0.576,0.574-1.164,1.137-1.754,1.696C20.548,7.828,20.444,7.858,20.243,7.858z"/>
	<path fill-rule="evenodd" clip-rule="evenodd" d="M24.72,14.461c-0.596,0-1.193,0.006-1.789-0.002
		c-0.362-0.005-0.677-0.255-0.773-0.587c-0.094-0.326,0.041-0.73,0.327-0.922c0.099-0.066,0.228-0.118,0.344-0.121
		c0.804-0.017,1.608-0.023,2.413-0.025c0.397-0.001,0.795,0.012,1.192,0.023c0.371,0.01,0.669,0.231,0.744,0.545
		c0.104,0.435-0.043,0.824-0.388,1.004c-0.075,0.039-0.168,0.056-0.253,0.059c-0.605,0.02-1.21,0.034-1.816,0.049
		C24.72,14.476,24.72,14.469,24.72,14.461z"/>
	<path fill-rule="evenodd" clip-rule="evenodd" d="M3.735,22.587c0.031-0.069,0.066-0.224,0.155-0.337
		c0.188-0.239,0.396-0.464,0.611-0.68c0.573-0.578,1.153-1.149,1.732-1.721c0.088-0.088,0.187-0.166,0.28-0.248
		c0.242-0.212,0.514-0.241,0.801-0.116c0.298,0.13,0.47,0.362,0.516,0.687c0.034,0.24-0.054,0.437-0.215,0.604
		c-0.402,0.422-0.8,0.848-1.212,1.259c-0.429,0.428-0.872,0.841-1.31,1.259c-0.248,0.236-0.536,0.283-0.844,0.14
		C3.929,23.284,3.758,23.026,3.735,22.587z"/>
	<path fill-rule="evenodd" clip-rule="evenodd" d="M12.776,24.694c0-0.564,0.001-1.129,0-1.693c0-0.187,0.053-0.349,0.161-0.505
		c0.327-0.468,1.094-0.442,1.399,0.068c0.043,0.072,0.068,0.165,0.071,0.249c0.015,0.555,0.028,1.11,0.028,1.665
		c0,0.689-0.017,1.378-0.021,2.067c-0.001,0.208-0.099,0.36-0.242,0.494c-0.373,0.348-1.099,0.219-1.308-0.244
		c-0.053-0.117-0.062-0.262-0.063-0.394c-0.006-0.569-0.003-1.138-0.003-1.707C12.791,24.694,12.783,24.694,12.776,24.694z"/>
</g>
</svg>
